<?xml version="1.0" encoding="UTF-8" standalone="no"?>
<svg
   xmlns:dc="http://purl.org/dc/elements/1.1/"
   xmlns:cc="http://creativecommons.org/ns#"
   xmlns:rdf="http://www.w3.org/1999/02/22-rdf-syntax-ns#"
   xmlns:svg="http://www.w3.org/2000/svg"
   xmlns="http://www.w3.org/2000/svg"
   id="svg4630"
   version="1.1"
   viewBox="0 0 210 297"
    width="67.407623mm"
   height="62.908276mm"
>
  <defs
     id="defs4624" />
  <metadata
     id="metadata4627">
    <rdf:RDF>
      <cc:Work
         rdf:about="">
        <dc:format>image/svg+xml</dc:format>
        <dc:type
           rdf:resource="http://purl.org/dc/dcmitype/StillImage" />
        <dc:title></dc:title>
      </cc:Work>
    </rdf:RDF>
  </metadata>
  <g
     id="layer1">
    <path
       id="path39"
       d="m 54.892018,92.736302 c -0.485048,-0.0762 -0.892683,-0.280865 -1.223072,-0.614204 -0.218861,-0.220821 -0.402612,-0.514881 -0.497785,-0.796621 -0.04073,-0.120569 -0.0341,-0.164099 0.02735,-0.17953 0.07742,-0.0194 0.09135,-0.003 0.177602,0.21574 0.03191,0.0807 0.09164,0.20051 0.132751,0.266171 0.128991,0.20605 0.09868,0.193499 0.278374,0.115219 0.08591,-0.0374 0.21118,-0.0845 0.278383,-0.10474 0.115937,-0.0348 0.121792,-0.0389 0.114429,-0.0803 -0.0043,-0.024 -0.02123,-0.1162 -0.0377,-0.20488 -0.02461,-0.13259 -0.02611,-0.16583 -0.0084,-0.18715 0.02595,-0.0313 0.106334,-0.0342 0.130773,-0.005 0.0097,0.0117 0.03353,0.0996 0.05299,0.195471 0.01947,0.0958 0.04084,0.17981 0.0475,0.186579 0.0067,0.007 0.07168,0.002 0.144513,-0.0108 0.07283,-0.0127 0.192306,-0.0279 0.265503,-0.0337 0.0732,-0.006 0.17613,-0.0148 0.228741,-0.0199 l 0.09565,-0.009 V 91.34651 91.22338 h 0.08318 0.08318 v 0.12313 0.12314 l 0.09566,0.009 c 0.05261,0.005 0.155544,0.0141 0.228741,0.0199 0.0732,0.006 0.192673,0.021 0.265503,0.0337 0.07283,0.0127 0.13786,0.0176 0.144512,0.0108 0.0067,-0.007 0.02803,-0.0907 0.0475,-0.18659 0.01947,-0.0958 0.04332,-0.1838 0.05299,-0.19546 0.0097,-0.0117 0.0393,-0.0212 0.06582,-0.0212 0.08168,0 0.09061,0.0498 0.04764,0.2655 -0.02033,0.1021 -0.03429,0.18792 -0.03102,0.1907 0.0032,0.003 0.06957,0.026 0.147343,0.0515 0.07777,0.0255 0.196611,0.0714 0.264088,0.10208 0.06748,0.0306 0.128516,0.0557 0.135643,0.0557 0.03817,0 0.245466,-0.375521 0.298456,-0.540661 0.01174,-0.0366 0.03279,-0.0796 0.04678,-0.0957 0.03141,-0.036 0.09253,-0.0376 0.126671,-0.004 0.03249,0.0325 0.02193,0.0895 -0.04913,0.26553 -0.19259,0.477041 -0.555272,0.86795 -1.018626,1.097901 -0.297065,0.147434 -0.542459,0.206804 -0.89352,0.216184 -0.137244,0.004 -0.294293,-4.77e-4 -0.348999,-0.009 z m 0.207596,-0.634914 v -0.450731 l -0.187151,0.0105 c -0.178824,0.0101 -0.473057,0.0504 -0.489827,0.0671 -0.01359,0.0136 0.106918,0.292341 0.178451,0.412741 0.09745,0.16404 0.247586,0.31825 0.368809,0.37883 0.05532,0.0276 0.107135,0.0462 0.115149,0.0413 0.008,-0.005 0.01457,-0.211831 0.01457,-0.459731 z m 0.342692,0.394199 c 0.09231,-0.0539 0.240573,-0.21717 0.322736,-0.35546 0.0711,-0.119689 0.191454,-0.39828 0.177907,-0.411829 -0.01677,-0.0168 -0.311003,-0.0571 -0.489827,-0.0671 l -0.187151,-0.0105 v 0.44893 c 0,0.24692 0.0045,0.45345 0.01003,0.45897 0.01287,0.0129 0.07973,-0.0124 0.166308,-0.063 z m -0.844685,-0.054 c -0.09999,-0.10828 -0.253736,-0.38583 -0.322428,-0.58207 -0.01681,-0.048 -0.03579,-0.0873 -0.04217,-0.0873 -0.06785,0 -0.464265,0.15919 -0.464265,0.18644 0,0.0224 0.169069,0.17427 0.296245,0.26614 0.161807,0.11689 0.54038,0.29673 0.567515,0.26959 0.0039,-0.004 -0.01175,-0.0277 -0.0349,-0.0528 z m 1.317141,-0.003 c 0.120052,-0.0477 0.285039,-0.13992 0.400837,-0.22415 0.115562,-0.0841 0.281226,-0.2346 0.281226,-0.25556 0,-0.0273 -0.396413,-0.18645 -0.464265,-0.18645 -0.0064,0 -0.02536,0.0393 -0.04217,0.0873 -0.0684,0.19542 -0.255519,0.52987 -0.33192,0.59328 -0.01469,0.0122 -0.0267,0.0282 -0.0267,0.0356 0,0.0157 0.05567,4.5e-4 0.182992,-0.05 z m -2.652466,-1.77682 c -0.0624,-0.18986 -0.117013,-0.35455 -0.121356,-0.36599 -0.0057,-0.0149 0.01585,-0.0208 0.07642,-0.0208 0.08327,0 0.08453,5.4e-4 0.10163,0.0624 0.0095,0.0343 0.04607,0.15948 0.08122,0.27815 l 0.0639,0.21576 0.09125,-0.27399 0.09125,-0.27398 0.0829,-0.005 0.0829,-0.005 0.08721,0.27525 c 0.04797,0.15139 0.08933,0.27525 0.09193,0.27525 0.0026,0 0.04117,-0.12352 0.08573,-0.27449 l 0.08102,-0.27449 h 0.07972 c 0.04385,0 0.07977,0.006 0.07983,0.0125 5.9e-5,0.007 -0.05422,0.17148 -0.120608,0.36583 l -0.120714,0.35335 -0.08357,1.6e-4 -0.08357,1.7e-4 -0.08814,-0.26617 c -0.04848,-0.14641 -0.09081,-0.26619 -0.09407,-0.26619 -0.0032,0 -0.04559,0.11978 -0.09407,0.26617 l -0.08814,0.26617 h -0.0846 -0.0846 z m 1.44409,-0.0218 -0.118739,-0.36657 0.08399,0.005 0.08399,0.005 0.07634,0.26198 c 0.04198,0.14408 0.08026,0.26199 0.08505,0.26201 0.0048,2e-5 0.04837,-0.11974 0.09685,-0.26613 l 0.08814,-0.26618 h 0.08146 0.08145 l 0.08516,0.26749 c 0.04684,0.14712 0.09012,0.26266 0.09618,0.25676 0.0061,-0.006 0.04514,-0.1244 0.08684,-0.26333 l 0.07582,-0.2526 0.08571,-0.005 0.08571,-0.005 -0.124097,0.35966 c -0.06825,0.19781 -0.124096,0.36328 -0.124096,0.3677 0,0.004 -0.03871,0.006 -0.08603,0.003 l -0.08602,-0.005 -0.08449,-0.25254 c -0.04647,-0.13889 -0.08852,-0.25646 -0.09345,-0.26126 -0.0049,-0.005 -0.04851,0.11071 -0.09685,0.2567 l -0.08789,0.26542 -0.08614,-2.2e-4 -0.08614,-2.2e-4 -0.11874,-0.36657 z m 1.566143,0.34709 c -0.02371,-0.0655 -0.224681,-0.69327 -0.224681,-0.70185 0,-0.006 0.03556,-0.0102 0.07902,-0.0102 l 0.07902,5e-5 0.07317,0.25365 c 0.04024,0.13951 0.07877,0.25999 0.08561,0.26773 0.0068,0.008 0.05246,-0.10675 0.101361,-0.25443 l 0.08892,-0.26851 0.08276,0.005 0.08276,0.005 0.08257,0.26202 c 0.04542,0.1441 0.08721,0.26201 0.09289,0.26201 0.0057,0 0.02726,-0.058 0.04796,-0.12893 0.02071,-0.0709 0.05678,-0.19069 0.08015,-0.26617 l 0.04251,-0.13725 h 0.08122 c 0.04467,0 0.08122,0.002 0.08122,0.004 0,0.003 -0.05529,0.1653 -0.122874,0.36183 l -0.122874,0.35734 -0.08361,0.005 -0.08361,0.005 -0.08817,-0.26625 c -0.04849,-0.14642 -0.09219,-0.26231 -0.09712,-0.25751 -0.0049,0.005 -0.04698,0.12237 -0.09345,0.26127 l -0.08449,0.25253 -0.08621,0.005 c -0.05947,0.003 -0.08864,-0.002 -0.09406,-0.0166 z m -3.109238,-0.90401 c -0.03249,-0.0325 -0.02193,-0.0895 0.04913,-0.26552 0.192789,-0.47754 0.55486,-0.86755 1.019914,-1.09863 0.316456,-0.15725 0.57148,-0.21491 0.950456,-0.21491 0.378976,0 0.634,0.0577 0.950455,0.21491 0.307773,0.15293 0.609524,0.41077 0.791552,0.67636 0.155241,0.22651 0.31812,0.59336 0.295328,0.66517 -0.01186,0.0373 -0.08549,0.0598 -0.121537,0.0371 -0.03241,-0.0204 -0.03912,-0.0334 -0.10912,-0.21051 -0.03191,-0.0807 -0.09164,-0.2005 -0.132751,-0.26617 -0.128992,-0.20604 -0.09868,-0.1935 -0.278374,-0.11522 -0.08591,0.0374 -0.21118,0.0846 -0.278384,0.10474 -0.115937,0.0348 -0.121791,0.0389 -0.114429,0.0803 0.0043,0.024 0.02123,0.11621 0.0377,0.20488 0.02462,0.13259 0.02611,0.16583 0.0084,0.18715 -0.02595,0.0313 -0.106334,0.0342 -0.130773,0.005 -0.0097,-0.0116 -0.03353,-0.0996 -0.053,-0.19546 -0.01947,-0.0959 -0.04084,-0.17982 -0.0475,-0.18659 -0.0067,-0.007 -0.07168,-0.002 -0.144514,0.0108 -0.07283,0.0127 -0.192305,0.0279 -0.265502,0.0337 -0.0732,0.006 -0.17613,0.0148 -0.22874,0.0199 l -0.09566,0.009 v 0.12313 0.12314 h -0.08318 -0.08318 v -0.12314 -0.12313 l -0.09565,-0.009 c -0.05261,-0.005 -0.155544,-0.0141 -0.228741,-0.0199 -0.0732,-0.006 -0.192673,-0.021 -0.265502,-0.0337 -0.07283,-0.0127 -0.137861,-0.0176 -0.144513,-0.0108 -0.0067,0.007 -0.02803,0.0907 -0.0475,0.18659 -0.01947,0.0958 -0.04332,0.18381 -0.05299,0.19546 -0.0097,0.0117 -0.0393,0.0212 -0.06582,0.0212 -0.08168,0 -0.09061,-0.0498 -0.04765,-0.265499 0.02033,-0.102101 0.03429,-0.187921 0.03103,-0.190701 -0.0032,-0.003 -0.06957,-0.026 -0.147342,-0.0515 -0.07777,-0.0255 -0.196612,-0.0714 -0.26409,-0.10208 -0.06748,-0.0306 -0.128515,-0.0557 -0.135642,-0.0557 -0.03817,0 -0.245466,0.37553 -0.298456,0.54066 -0.01174,0.0366 -0.03279,0.0796 -0.04678,0.0957 -0.03141,0.036 -0.09253,0.0376 -0.126671,0.004 z m 1.936323,-0.93828 c 0,-0.24651 -0.0066,-0.45224 -0.01457,-0.4572 -0.008,-0.005 -0.05983,0.0136 -0.115149,0.0413 -0.177769,0.0888 -0.364383,0.32305 -0.483055,0.60626 -0.07778,0.18562 -0.0779,0.18678 -0.0221,0.19903 0.111806,0.0246 0.386066,0.0555 0.505943,0.0571 l 0.128926,0.002 z m 0.688024,0.40791 c 0.08105,-0.0134 0.150941,-0.0279 0.155311,-0.0323 0.01359,-0.0136 -0.106919,-0.29233 -0.178451,-0.41273 -0.09745,-0.16404 -0.247586,-0.31825 -0.368809,-0.37882 -0.05532,-0.0276 -0.107136,-0.0462 -0.115149,-0.0413 -0.008,0.005 -0.01457,0.21183 -0.01457,0.45973 v 0.45073 l 0.187152,-0.0105 c 0.102933,-0.006 0.253464,-0.0214 0.334515,-0.0348 z m -1.512445,-0.16352 c 0.06869,-0.19625 0.222436,-0.4738 0.322428,-0.58208 0.02315,-0.0251 0.03885,-0.0488 0.0349,-0.0527 -0.02714,-0.0272 -0.405708,0.1527 -0.567515,0.26959 -0.127068,0.0918 -0.296245,0.24376 -0.296245,0.2661 0,0.027 0.383976,0.18258 0.458354,0.18574 0.0096,4.71e-4 0.03126,-0.0386 0.04808,-0.0866 z m 1.983007,0.0522 c 0.146428,-0.0452 0.338625,-0.13105 0.338625,-0.15124 0,-0.0224 -0.169069,-0.17426 -0.296245,-0.26614 -0.161807,-0.11689 -0.54038,-0.29672 -0.567515,-0.26959 -0.0039,0.004 0.01175,0.0277 0.0349,0.0528 0.09999,0.10828 0.253736,0.38583 0.322429,0.58208 0.01681,0.048 0.03579,0.0873 0.04217,0.0873 0.0064,0 0.06292,-0.0159 0.12564,-0.0352 z"
       style="fill:#404040;fill-opacity:1;stroke-width:0.01663567" />
  </g>
</svg>
